<svg xmlns="http://www.w3.org/2000/svg" width="15.317" height="16" viewBox="0 0 15.317 16">
  <path id="cog" d="M32.34,17.132l1.375.794a.388.388,0,0,1,.176.451,7.988,7.988,0,0,1-1.764,3.051.388.388,0,0,1-.478.073l-1.374-.793a6.18,6.18,0,0,1-1.96,1.133v1.587a.387.387,0,0,1-.3.378,8.064,8.064,0,0,1-3.523,0,.388.388,0,0,1-.3-.378V21.84a6.179,6.179,0,0,1-1.96-1.133l-1.374.793a.388.388,0,0,1-.478-.073,7.988,7.988,0,0,1-1.764-3.051.388.388,0,0,1,.176-.451l1.375-.794a6.241,6.241,0,0,1,0-2.264l-1.375-.794a.388.388,0,0,1-.176-.451,7.987,7.987,0,0,1,1.764-3.051.388.388,0,0,1,.478-.073l1.374.793a6.18,6.18,0,0,1,1.96-1.133V8.572a.387.387,0,0,1,.3-.378,8.064,8.064,0,0,1,3.523,0,.388.388,0,0,1,.3.378v1.587a6.179,6.179,0,0,1,1.96,1.133l1.374-.793a.388.388,0,0,1,.478.073,7.988,7.988,0,0,1,1.764,3.051.388.388,0,0,1-.176.451l-1.375.794A6.241,6.241,0,0,1,32.34,17.132ZM28.831,16A2.581,2.581,0,1,0,26.25,18.58,2.584,2.584,0,0,0,28.831,16Z" transform="translate(-18.592 -7.999)" fill="#fff" opacity="0.6"/>
</svg>
