<svg xmlns="http://www.w3.org/2000/svg" width="19.999" height="20" viewBox="0 0 19.999 20">
  <path id="comment-alt-lines" d="M17.5,0H2.5A2.5,2.5,0,0,0,0,2.5V13.749a2.5,2.5,0,0,0,2.5,2.5H6.25V19.53A.47.47,0,0,0,7,19.909l4.879-3.66H17.5a2.5,2.5,0,0,0,2.5-2.5V2.5A2.5,2.5,0,0,0,17.5,0Zm-6.25,10.312a.313.313,0,0,1-.312.312H5.312A.313.313,0,0,1,5,10.312V9.687a.313.313,0,0,1,.312-.312h5.625a.313.313,0,0,1,.312.312ZM15,6.562a.313.313,0,0,1-.312.312H5.312A.313.313,0,0,1,5,6.562V5.937a.313.313,0,0,1,.312-.312h9.374A.313.313,0,0,1,15,5.937Z" fill="#fb726f"/>
</svg>
