<svg xmlns="http://www.w3.org/2000/svg" width="26" height="26" viewBox="0 0 26 26">
  <path id="csupport-logo" d="M25.62,10.729,17.185,2.294a4.565,4.565,0,0,0-6.456,0L2.294,10.729a4.565,4.565,0,0,0,0,6.456l8.435,8.435a4.565,4.565,0,0,0,6.456,0l8.435-8.435a4.565,4.565,0,0,0,0-6.456ZM12.373,20.287A6.835,6.835,0,0,1,10,19.521,6.268,6.268,0,0,1,8.2,18.066a6.136,6.136,0,0,1-1.12-2.008,7.522,7.522,0,0,1-.382-2.42,7.661,7.661,0,0,1,.368-2.407A5.925,5.925,0,0,1,8.157,9.253,5.081,5.081,0,0,1,9.935,7.9a4.945,4.945,0,0,1,.752-.273V11h0a2.867,2.867,0,0,0-.474.409A3.387,3.387,0,0,0,9.34,13.82a3.2,3.2,0,0,0,.982,2.453,4.036,4.036,0,0,0,2.391,1.073Zm.989-4.322a1.982,1.982,0,0,1-1.454-.6,1.911,1.911,0,0,1-.6-1.395,2.083,2.083,0,0,1,3.527-1.441,1.923,1.923,0,0,1,.582,1.411,1.99,1.99,0,0,1-.582,1.411,1.943,1.943,0,0,1-1.475.612Zm9.245-2.96a5.986,5.986,0,0,1-.935,1.12q-.553.522-1.2,1.073-.614.522-1.043.935a3.8,3.8,0,0,0-.675.844,3.2,3.2,0,0,0-.352.951,6.5,6.5,0,0,0-.108,1.287v1.073H15.417V18.82a6.216,6.216,0,0,1,.153-1.441,4.509,4.509,0,0,1,.445-1.163,5.915,5.915,0,0,1,.705-1q.414-.476.935-.966l1.134-1.073a6.149,6.149,0,0,0,.83-.873h3.357a4.871,4.871,0,0,1-.369.7Z" transform="translate(-0.957 -0.957)" fill="#fff" opacity="0.6"/>
</svg>
