<svg xmlns="http://www.w3.org/2000/svg" width="14.003" height="14" viewBox="0 0 14.003 14">
  <path id="expand-arrows-alt" d="M14,41.75v3.5a.748.748,0,0,1-.75.75h-3.5a.751.751,0,0,1-.531-1.281l1.131-1.131L7,40.237,3.65,43.591l1.131,1.128A.751.751,0,0,1,4.25,46H.75A.748.748,0,0,1,0,45.25v-3.5a.751.751,0,0,1,1.281-.531L2.412,42.35,5.766,39,2.412,35.647,1.281,36.781A.751.751,0,0,1,0,36.25v-3.5A.748.748,0,0,1,.75,32h3.5a.751.751,0,0,1,.531,1.281L3.65,34.412,7,37.763l3.353-3.353L9.222,33.281A.751.751,0,0,1,9.753,32h3.5a.748.748,0,0,1,.75.75v3.5a.751.751,0,0,1-1.281.531L11.591,35.65,8.238,39l3.353,3.353,1.131-1.131A.749.749,0,0,1,14,41.75Z" transform="translate(0 -32)" fill="#838eab"/>
</svg>
