<svg xmlns="http://www.w3.org/2000/svg" width="12.375" height="18" viewBox="0 0 12.375 18">
  <path id="lightbulb" d="M25,15.047v.984a.844.844,0,0,1-.562.8v.329a.844.844,0,0,1-.844.844H20.781a.844.844,0,0,1-.844-.844v-.329a.844.844,0,0,1-.562-.8v-.984a.422.422,0,0,1,.422-.422h4.781A.422.422,0,0,1,25,15.047ZM19.969,13.5a.842.842,0,0,1-.787-.539C17.817,9.406,16,9.764,16,6.188a6.188,6.188,0,0,1,12.375,0c0,3.576-1.817,3.218-3.182,6.774a.842.842,0,0,1-.787.539Zm-.594-7.312a2.816,2.816,0,0,1,2.813-2.812.563.563,0,0,0,0-1.125A3.942,3.942,0,0,0,18.25,6.188a.563.563,0,0,0,1.125,0Z" transform="translate(-16)" fill="#fff"/>
</svg>
