<svg xmlns="http://www.w3.org/2000/svg" width="9.887" height="17.125" viewBox="0 0 9.887 17.125">
  <path id="select-arrows" d="M4.559,16.966l-4.4-4.4a.542.542,0,0,1,0-.768l.513-.514a.545.545,0,0,1,.768,0l3.5,3.488,3.5-3.488a.545.545,0,0,1,.768,0l.514.514a.544.544,0,0,1,0,.768l-4.4,4.4a.543.543,0,0,1-.769,0ZM8.447,5.842l-3.5-3.488L1.44,5.842a.544.544,0,0,1-.768,0L.159,5.328a.543.543,0,0,1,0-.769l4.4-4.4a.543.543,0,0,1,.769,0l4.4,4.4a.545.545,0,0,1,0,.769l-.514.513a.543.543,0,0,1-.767,0Z" fill="#838eab"/>
</svg>
