<svg xmlns="http://www.w3.org/2000/svg" width="14" height="14" viewBox="0 0 14 14">
  <path id="thumbs-down" d="M0,1.531V8.094a.656.656,0,0,0,.656.656H2.844A.656.656,0,0,0,3.5,8.094V1.531A.656.656,0,0,0,2.844.875H.656A.656.656,0,0,0,0,1.531ZM1.094,7a.656.656,0,1,1,.656.656A.656.656,0,0,1,1.094,7Zm7.438,7c-.552,0-.806-1.074-.928-1.58a3.312,3.312,0,0,0-.694-1.611C6.021,9.92,5.556,8.787,4.472,7.716a.328.328,0,0,1-.1-.233V1.638A.328.328,0,0,1,4.7,1.31,4.3,4.3,0,0,0,6.137.867,7.85,7.85,0,0,1,9.406,0h.078c1.17,0,2.553.011,3.111.813a1.452,1.452,0,0,1,.168,1.22,2.162,2.162,0,0,1,.448,2.044,2.284,2.284,0,0,1,.255,2.173l0,0A1.98,1.98,0,0,1,14,7.6a1.634,1.634,0,0,1-1.628,1.589H9.59c.2.775.91,1.425.91,2.585C10.5,13.781,9.188,14,8.531,14Z" fill="#838eab"/>
</svg>
